<svg width="16" height="14" viewBox="0 0 16 14" fill="none" xmlns="http://www.w3.org/2000/svg">
<path d="M16 2.06358C15.4112 2.3233 14.7786 2.49884 14.1146 2.5778C14.7924 2.17364 15.3129 1.53363 15.5579 0.771058C14.9136 1.15146 14.2086 1.41948 13.4735 1.56353C12.8747 0.928869 12.0216 0.532227 11.0774 0.532227C9.26456 0.532227 7.79475 1.99444 7.79475 3.79789C7.79475 4.05388 7.82381 4.30309 7.87975 4.54217C5.15162 4.40594 2.73287 3.10583 1.11381 1.13002C0.831312 1.61234 0.669438 2.17339 0.669438 2.7718C0.669438 3.90484 1.249 4.90437 2.12975 5.49004C1.60847 5.4738 1.09866 5.33372 0.642875 5.08152C0.642688 5.0952 0.642687 5.10888 0.642687 5.12262C0.642687 6.7049 1.77419 8.02484 3.27581 8.32486C2.79243 8.45565 2.28539 8.47479 1.79344 8.38082C2.21112 9.67825 3.42344 10.6224 4.85981 10.6488C3.73638 11.5247 2.32094 12.0468 0.783063 12.0468C0.518063 12.0468 0.256813 12.0313 0 12.0012C1.45269 12.9277 3.17813 13.4684 5.03188 13.4684C11.0698 13.4684 14.3715 8.49212 14.3715 4.17662C14.3715 4.03498 14.3684 3.89414 14.362 3.75411C15.0046 3.29192 15.5593 2.71946 16 2.06358" fill="#55ACEE"/>
</svg>
